<?xml version="1.0" encoding="UTF-8"?>
<svg id="Layer_1" xmlns="http://www.w3.org/2000/svg" xmlns:xlink="http://www.w3.org/1999/xlink" viewBox="0 0 1005.21 777.59">
  <defs>
    <style>
      .cls-1 {
        fill: #007aff;
      }

      .cls-2 {
        font-size: 82.68px;
        stroke: red;
        stroke-width: 2px;
      }

      .cls-2, .cls-3 {
        font-family: Ravie, Ravie;
        stroke-miterlimit: 10;
      }

      .cls-4 {
        fill: #fff;
      }

      .cls-5 {
        fill: #c8c9bc;
      }

      .cls-3 {
        font-size: 120px;
        stroke: lime;
        stroke-width: 3px;
      }

      .cls-6 {
        fill: #a0a0a0;
      }

      .cls-7 {
        fill: #c9c41b;
      }

      .cls-8 {
        fill: #b3eaf4;
      }

      .cls-9 {
        fill: #5c66e0;
      }

      .cls-10 {
        fill: #2ff47e;
      }

      .cls-11 {
        fill: url(#linear-gradient);
      }

      .cls-12 {
        fill: #ffae43;
      }

      .cls-13 {
        fill: #f4db9d;
      }
    </style>
    <linearGradient id="linear-gradient" x1="388.47" y1="59.11" x2="773.53" y2="726.06" gradientUnits="userSpaceOnUse">
      <stop offset=".31" stop-color="#fff"/>
      <stop offset="1" stop-color="#01006a"/>
    </linearGradient>
  </defs>
  <circle class="cls-11" cx="581" cy="392.59" r="385"/>
  <g>
    <g>
      <path class="cls-7" d="M690.82,510.11c-.22,17.2,12.32,33.77,28.94,38.23,4.89,1.31,10.35,1.6,14.78-.86,4.43-2.45,7.19-8.29,4.94-12.83-2.99-6.01-11.75-5.85-17.96-3.29,1.5-7.03,9.53-11.6,16.57-10.15,7.04,1.45,12.42,8.02,13.43,15.13s-1.91,14.45-6.81,19.71-11.58,8.6-18.52,10.5c-13.69,3.74-28.2,2.13-42.3.5-4.78-.55-9.78-1.18-13.74-3.92-6.17-4.25-8.17-12.31-9.61-19.66-1.48-7.57-2.86-15.15-4.13-22.76-.52-3.09-.81-6.78,1.57-8.82,1.58-1.35,3.84-1.48,5.92-1.54,8.76-.25,17.52-.51,26.29-.76"/>
      <path d="M689.32,510.11c-.11,14.42,8.18,28.31,20.52,35.63,6.39,3.8,14.83,6.52,22.22,4.38,3.58-1.04,6.7-3.36,8.4-6.73,1.57-3.11,1.86-6.8.11-9.9-3.78-6.68-13.31-6.04-19.43-3.57l1.85,1.85c1.29-5.6,6.88-9.33,12.5-9.31,6.11.02,11.37,4.72,13.53,10.2,2.55,6.45.87,13.7-2.91,19.3-3.97,5.9-10.35,9.83-16.97,12.14-7.59,2.64-15.68,3.38-23.67,3.24-8.08-.14-16.23-.98-24.23-2.1-3.52-.49-7.12-1.26-10.12-3.26-2.62-1.76-4.45-4.41-5.77-7.23s-2.17-6.12-2.85-9.28c-.82-3.83-1.52-7.7-2.23-11.56-.77-4.19-1.51-8.4-2.22-12.6-.44-2.59-1.37-6.83,1.34-8.55,1.45-.92,3.38-.85,5.04-.9,2.15-.06,4.3-.12,6.45-.19,4.3-.12,8.6-.25,12.89-.37,2.15-.06,4.3-.12,6.45-.19,1.93-.06,1.93-3.06,0-3-4.79.14-9.59.28-14.38.42-4.54.13-9.16.02-13.68.44-3.77.34-6.81,2.27-7.41,6.22s.59,7.98,1.25,11.77c.82,4.69,1.68,9.37,2.57,14.04.73,3.79,1.42,7.6,2.63,11.27,1.09,3.31,2.59,6.5,4.87,9.17,2.48,2.9,5.85,4.74,9.49,5.73,3.94,1.08,8.1,1.38,12.14,1.83,4.57.51,9.15.97,13.74,1.2,8.9.44,17.98.02,26.56-2.58,7.4-2.24,14.56-6.19,19.39-12.35,4.69-5.98,7.2-14.06,5.14-21.56-1.79-6.5-6.97-12.3-13.66-13.86-6.31-1.46-13.31,1.34-16.9,6.73-.88,1.33-1.51,2.83-1.87,4.39-.23,1,.71,2.3,1.85,1.85,4.5-1.82,11.51-3.04,15.22,1.04,1.94,2.13,2.02,5.18.86,7.71-1.4,3.07-4.13,5.03-7.36,5.82-6.53,1.61-13.88-.98-19.45-4.33s-9.87-7.76-13.15-13.06c-3.7-5.97-5.78-12.85-5.73-19.89.01-1.93-2.99-1.93-3,0h0Z"/>
    </g>
    <g>
      <path class="cls-7" d="M484.43,514.43c.22,17.2-12.32,33.77-28.94,38.23-4.89,1.31-10.35,1.6-14.78-.86s-7.19-8.29-4.94-12.83c2.99-6.01,11.75-5.85,17.96-3.29-1.5-7.03-9.53-11.6-16.57-10.15-7.04,1.45-12.42,8.02-13.43,15.13-1.01,7.12,1.91,14.45,6.81,19.71,4.9,5.26,11.58,8.6,18.52,10.5,13.69,3.74,28.2,2.13,42.3.5,4.78-.55,9.78-1.18,13.74-3.92,6.17-4.25,8.17-12.31,9.61-19.66,1.48-7.57,2.86-15.15,4.13-22.76.52-3.09.81-6.78-1.57-8.82-1.58-1.35-3.84-1.48-5.92-1.54-8.76-.25-17.52-.51-26.29-.76"/>
      <path d="M482.93,514.43c.09,12.52-6.64,24.66-16.93,31.7-5.38,3.68-12.09,6.38-18.71,5.98-3.35-.2-6.69-1.46-8.81-4.16-1.77-2.26-2.72-5.51-1.43-8.22,2.8-5.88,11.41-4.56,16.26-2.6,1.13.46,2.07-.85,1.85-1.85-1.47-6.43-7.53-10.8-13.9-11.44-6.85-.69-13.22,3.62-16.54,9.41-3.83,6.69-3.29,14.78.09,21.54,3.52,7.04,9.98,12.12,17.11,15.18,16.28,7,35.02,4.86,52.09,2.58,3.85-.51,7.78-1.28,11.14-3.34,3.04-1.86,5.36-4.67,6.96-7.82s2.65-6.74,3.43-10.27c.94-4.25,1.7-8.55,2.49-12.83.84-4.56,1.73-9.13,2.39-13.72.46-3.21.58-7.06-2.09-9.41-1.45-1.28-3.33-1.72-5.2-1.89-2.23-.2-4.5-.17-6.74-.24-4.71-.14-9.42-.27-14.13-.41-2.4-.07-4.79-.14-7.19-.21-1.93-.06-1.93,2.94,0,3,8.6.25,17.19.49,25.79.75,1.66.05,3.58-.02,5.04.9,1.26.8,1.71,2.27,1.79,3.7.09,1.63-.18,3.24-.45,4.85-.35,2.1-.72,4.2-1.09,6.31-.74,4.2-1.51,8.4-2.32,12.58-.65,3.36-1.27,6.73-2.24,10.02-.89,3.03-2.1,6.04-4.04,8.56-2.09,2.71-4.96,4.45-8.22,5.4-3.58,1.04-7.34,1.34-11.03,1.76-4.1.46-8.2.89-12.32,1.16-8.17.53-16.46.44-24.47-1.44-6.94-1.62-13.77-4.58-18.92-9.62s-8.19-11.81-7.46-18.86c.62-5.95,4.67-11.86,10.4-13.92,5.34-1.93,11.85-.03,15.1,4.72.8,1.17,1.34,2.43,1.65,3.81l1.85-1.85c-5.51-2.23-13.54-3.04-18.04,1.7-5.19,5.46-1.88,14.21,4.24,17.35,7.11,3.65,15.97,1.45,22.75-1.95,6.41-3.22,11.86-8.23,15.85-14.16,4.5-6.69,7.07-14.67,7.01-22.76-.01-1.93-3.01-1.93-3,0h0Z"/>
    </g>
    <g>
      <path class="cls-9" d="M617.28,286.53c2.79,23.1,16.61,43.55,33.13,59.92,16.52,16.38,35.91,29.53,53.58,44.66,11.45,9.8,22.45,20.85,28.25,34.76,6.08,14.6,5.88,31.04,3.89,46.73-2.21,17.4-6.8,35.15-17.91,48.72-10.95,13.39-27.34,21.45-44.16,25.45-16.83,4-34.28,4.3-51.58,4.59-52.13.85-104.26,1.7-156.39,2.55-3.08.05-6.67-.14-8.45-2.65-1.81-2.55-.75-6.07.43-8.96,10.8-26.38,26.73-50.32,39.26-75.92,12.54-25.6,21.79-54.11,17.76-82.33"/>
      <path d="M615.78,286.53c2.69,21.7,14.57,40.84,29.27,56.56,16.41,17.54,36.42,31.12,54.77,46.46,8.49,7.09,16.86,14.6,23.41,23.58,6.86,9.41,10.95,20.14,12.16,31.73s.12,23.66-1.88,35.21c-1.89,10.86-4.92,21.68-10.35,31.33-10.86,19.3-31.04,29.99-52.11,34.52-12.52,2.69-25.36,3.42-38.13,3.74s-26.26.46-39.38.67c-26.34.43-52.69.86-79.03,1.29-13.17.21-26.34.43-39.52.64-3.23.05-6.46.16-9.68.15-2.11,0-4.95-.07-6.38-1.92-1.62-2.1-.43-5.24.43-7.41,1.1-2.81,2.34-5.56,3.58-8.31,10.14-22.3,23.35-43.01,34.31-64.89,10.72-21.39,19.43-44.56,20.23-68.71.19-5.87-.14-11.73-.95-17.54-.27-1.9-3.16-1.09-2.89.8,3.45,24.66-3.37,49.5-13.29,71.91s-23.4,43.52-34.54,65.56c-2.82,5.59-5.51,11.25-7.95,17.01-1.82,4.3-4.82,10.55-.4,14.35,1.84,1.58,4.3,2.01,6.65,2.12,3.06.14,6.15-.05,9.21-.1,6.68-.11,13.36-.22,20.04-.33,26.81-.44,53.62-.87,80.42-1.31,13.45-.22,26.9-.44,40.35-.66,12.95-.21,25.94-.22,38.84-1.4,22.33-2.05,45.55-8.25,61.96-24.44,16.23-16.02,21.56-39.56,23.45-61.53,1.03-11.93.69-24.25-3.05-35.72-3.5-10.72-10.04-20.02-17.75-28.13-8.03-8.45-17.2-15.79-26.32-23.02-9.58-7.59-19.32-15.01-28.56-23.02-16.98-14.71-32.82-32.17-40.28-53.77-1.73-5.01-2.99-10.19-3.64-15.45-.23-1.89-3.24-1.91-3,0h0Z"/>
    </g>
    <g>
      <path class="cls-9" d="M513.07,487.59c-21.68-5.85-43.32-15.54-57.44-33-14.12-17.46-18.62-44.1-5.76-62.5-18.31-12.2-42.91-14.31-63.03-5.41,10.82,5.48,14.99,18.42,19.66,29.61,16.54,39.64,52.37,70.69,93.96,81.43"/>
      <path d="M513.47,486.15c-17.13-4.64-34.26-11.54-47.79-23.33-6.48-5.65-11.98-12.3-15.81-20.02s-5.89-15.76-6.08-24.1c-.21-9.18,2.13-18.27,7.38-25.86.48-.69.1-1.63-.54-2.05-14.71-9.74-33.2-13.14-50.49-9.83-4.85.93-9.54,2.43-14.06,4.41-1.03.45-.93,2.11,0,2.59,9.55,4.92,13.66,15.65,17.47,25.04,4.07,10.03,8.9,19.61,15.04,28.54,12.33,17.95,28.77,33.06,47.7,43.84,10.59,6.03,21.97,10.7,33.77,13.77,1.87.49,2.67-2.41.8-2.89-20.97-5.45-40.47-16.03-56.7-30.35-16.28-14.36-28.99-32.26-37.18-52.36-4.28-10.51-8.65-22.64-19.39-28.18v2.59c15.36-6.73,33.26-6.9,48.91-1.04,4.43,1.66,8.65,3.84,12.6,6.45l-.54-2.05c-9.97,14.41-9.62,33.49-3.02,49.2,7.13,16.96,21.57,29.32,37.69,37.51,9.35,4.75,19.31,8.25,29.42,10.99,1.87.51,2.66-2.39.8-2.89h0Z"/>
    </g>
    <g>
      <path class="cls-5" d="M473.65,416.76c-5.52,11.35-11.04,22.69-16.57,34.04,5.65,1.54,11.96.45,16.77-2.89-9.57,17.75-22.7,33.57-38.38,46.25,12.25.91,24.8-3.32,34.02-11.45-5.92,7.25-11.84,14.49-17.75,21.74,13.6-4.06,26.02-12.01,35.41-22.65l-4.69,14.98c13.07-7.66,24.55-18.02,33.5-30.25-2.63,2.67-5.36,5.52-6.28,9.15s.76,8.21,4.41,9.08c2.66.64,5.33-.82,7.62-2.31,17.41-11.33,31.13-28.25,38.6-47.63,1.91,4.31,3.82,8.63,5.73,12.94,9.72-16.1,15.59-34.51,16.98-53.27.05,5.95,1.9,11.88,5.25,16.79,4.04-12.35,8.08-24.7,12.12-37.05,5.37,15.37,5.45,32.52.23,47.94,10.25-13.74,17.22-29.91,20.15-46.8,1.89,16.94.57,34.23-3.86,50.69,22.58-28.39,24.84-67.39,26.13-103.64,2.95,12.9,5.89,25.8,8.84,38.71,2.66-17.49,5.19-35.32,2.41-52.79s-11.73-34.82-27.12-43.54c-19.21-10.88-43.81-6.01-63.28,4.4"/>
      <path d="M472.35,416.01c-5.52,11.35-11.04,22.69-16.57,34.04-.41.85-.1,1.94.9,2.2,6.1,1.59,12.7.51,17.93-3.04l-2.05-2.05c-7.43,13.73-16.93,26.28-28.16,37.12-3.2,3.09-6.53,6.02-9.98,8.82-1.1.89-.1,2.48,1.06,2.56,12.72.88,25.49-3.51,35.08-11.89l-2.12-2.12c-5.92,7.25-11.84,14.49-17.75,21.74-.88,1.08-.1,2.98,1.46,2.51,13.87-4.18,26.46-12.2,36.07-23.04l-2.51-1.46c-1.56,4.99-3.12,9.99-4.69,14.98-.39,1.26,1.1,2.34,2.2,1.69,13.31-7.83,24.89-18.34,34.04-30.78,1.02-1.39-1.19-3.01-2.36-1.82-4.22,4.3-8.85,9.89-6.14,16.26,1.09,2.56,3.32,4.47,6.17,4.67,3.42.24,6.5-1.91,9.19-3.74,10.83-7.37,20.17-16.85,27.44-27.74,4.12-6.17,7.51-12.78,10.2-19.69l-2.74.36c1.91,4.31,3.82,8.63,5.73,12.94.47,1.07,2.06.88,2.59,0,7.66-12.74,12.99-26.88,15.6-41.51.74-4.14,1.26-8.32,1.58-12.51h-3c.09,6.25,1.97,12.36,5.45,17.55.73,1.09,2.33.9,2.74-.36,4.04-12.35,8.08-24.7,12.12-37.05h-2.89c5.26,15.21,5.34,31.88.23,47.14-.58,1.73,1.8,2.42,2.74,1.16,10.31-13.88,17.31-30.13,20.31-47.16l-2.95-.4c1.85,16.85.57,33.92-3.8,50.3-.36,1.34,1.53,2.69,2.51,1.46,8.8-11.12,14.78-24.06,18.61-37.66s5.69-28.19,6.74-42.5c.6-8.17.93-16.36,1.22-24.54l-2.95.4c2.95,12.9,5.89,25.8,8.84,38.71.31,1.37,2.67,1.49,2.89,0,3.68-24.18,7.09-49.91-3.41-72.93-4.27-9.35-10.78-17.82-19.41-23.52-9.19-6.06-20.31-8.41-31.22-7.85-12.67.64-25.01,4.75-36.15,10.68-1.7.91-.19,3.5,1.51,2.59,18.33-9.76,42.24-15.23,61.41-4.6,18.47,10.24,26.61,32.01,27.76,52.09.82,14.33-1.23,28.61-3.38,42.74h2.89c-2.95-12.9-5.89-25.8-8.84-38.71-.39-1.7-2.89-1.25-2.95.4-.5,14.16-1.12,28.35-3.03,42.4-1.88,13.74-4.98,27.51-10.67,40.21-3.18,7.1-7.15,13.86-11.99,19.97l2.51,1.46c4.44-16.61,5.79-34,3.91-51.09-.17-1.53-2.63-2.21-2.95-.4-2.96,16.81-9.82,32.74-20,46.44l2.74,1.16c5.27-15.72,5.19-33.07-.23-48.74-.49-1.4-2.42-1.44-2.89,0-4.04,12.35-8.08,24.7-12.12,37.05l2.74-.36c-3.2-4.77-4.96-10.29-5.04-16.04-.03-1.95-2.85-1.91-3,0-1.41,18.52-7.21,36.59-16.78,52.51h2.59c-1.91-4.31-3.82-8.63-5.73-12.94-.58-1.31-2.33-.7-2.74.36-4.21,10.86-10.41,20.95-18.14,29.65-3.86,4.35-8.11,8.37-12.67,11.99-2.28,1.81-4.66,3.51-7.1,5.09-2.2,1.43-5.45,3.39-7.93,1.46-2.01-1.56-2.46-4.61-1.78-6.93.94-3.25,3.48-5.76,5.79-8.11l-2.36-1.82c-8.83,12.02-20.11,22.15-32.96,29.71l2.2,1.69c1.56-4.99,3.12-9.99,4.69-14.98.44-1.4-1.51-2.58-2.51-1.46-9.28,10.46-21.35,18.22-34.75,22.27l1.46,2.51c5.92-7.25,11.84-14.49,17.75-21.74,1.21-1.48-.65-3.41-2.12-2.12-9.01,7.88-21.03,11.83-32.96,11.01l1.06,2.56c12.26-9.94,22.96-21.76,31.66-34.94,2.49-3.77,4.8-7.64,6.95-11.61.67-1.24-.75-2.94-2.05-2.05-4.58,3.11-10.25,4.14-15.62,2.74l.9,2.2c5.52-11.35,11.04-22.69,16.57-34.04.84-1.73-1.74-3.25-2.59-1.51h0Z"/>
    </g>
    <g>
      <path class="cls-13" d="M584.83,316.24c1.18-9.27,2.37-18.68.95-27.91s-5.82-18.43-13.64-23.54c-6.98-4.56-15.95-5.36-24.12-3.65-8.17,1.71-15.67,5.71-22.72,10.17-9.11,5.76-17.96,12.67-22.95,22.22s-5.22,22.26,1.92,30.33c3.84,4.34,9.6,7.27,11.61,12.7,1.74,4.71.13,9.91-.67,14.87-2.98,18.44,6.98,38.25,23.55,46.88"/>
      <g>
        <path class="cls-13" d="M585.7,319.58c.51,20.1-7.67,40.27-22.04,54.33,2.78.21,5.56.41,8.35.62-8.11,7.74-19.05,12.43-30.25,12.97,4.39,1.13,8.79,2.26,13.18,3.4-5.27,1.81-10.53,3.62-15.8,5.44"/>
        <path d="M584.2,319.58c.35,15.36-4.35,30.62-13.11,43.23-2.51,3.61-5.36,6.96-8.49,10.04-.98.97-.19,2.47,1.06,2.56,2.78.21,5.56.41,8.35.62l-1.06-2.56c-7.89,7.46-18.34,11.96-29.19,12.53-1.64.09-2.1,2.51-.4,2.95,4.39,1.13,8.79,2.26,13.18,3.4v-2.89c-5.27,1.81-10.53,3.62-15.8,5.44-1.81.62-1.04,3.52.8,2.89,5.27-1.81,10.53-3.62,15.8-5.44,1.34-.46,1.51-2.5,0-2.89-4.39-1.13-8.79-2.26-13.18-3.4l-.4,2.95c11.65-.61,22.83-5.39,31.31-13.41,1.01-.95.17-2.47-1.06-2.56-2.78-.21-5.56-.41-8.35-.62l1.06,2.56c11.39-11.21,19.03-26.12,21.54-41.9.71-4.47,1.04-8.98.93-13.5-.04-1.93-3.04-1.93-3,0h0Z"/>
      </g>
    </g>
    <g>
      <path class="cls-13" d="M522.18,329.72c-3,6.54-9.34,10.93-15.87,13.96s-13.53,5.05-19.77,8.64c-3.92,2.25-7.58,5.2-9.77,9.15s-2.71,9.02-.5,12.96c2.94,5.24,9.62,7.09,15.63,7.16,6.01.07,12.1-1.13,17.97.13,4.64.99,9.98,3.34,13.68.36,3.01-2.42,2.84-7.31.69-10.52-2.15-3.21-5.7-5.14-9.11-6.95"/>
      <path d="M520.89,328.97c-4.41,9.39-14.68,13.32-23.71,16.88-9.1,3.59-20.48,8.28-23.27,18.75-1.24,4.65-.36,9.74,3.07,13.24,3.11,3.18,7.57,4.56,11.89,5.07,5.51.64,11.05-.46,16.57-.22,2.73.12,5.28.79,7.91,1.46,2.3.59,4.71,1.12,7.1.8,5.3-.71,7.75-5.81,6.58-10.71-1.31-5.46-6.53-8.47-11.13-10.91-1.7-.9-3.22,1.68-1.51,2.59,3.65,1.94,8.23,4.22,9.57,8.47,1.18,3.73-.53,7.61-4.8,7.67-2.24.03-4.43-.64-6.57-1.2-2.43-.63-4.86-1.07-7.38-1.17-5.03-.19-10.05.71-15.08.35-3.87-.28-8.07-1.38-10.9-4.18-3.19-3.16-3.49-7.94-1.93-11.98,3.48-8.97,14.42-12.66,22.57-15.87,9.15-3.61,19.18-8.08,23.61-17.52.82-1.74-1.77-3.26-2.59-1.51h0Z"/>
    </g>
    <g>
      <path class="cls-4" d="M476.98,380.01c-9.12,4.12-17.24,10.46-23.44,18.31,2.97,2.04,6.74,2.88,10.3,2.31-2.04,4.59-5.26,8.64-9.26,11.67,5,.68,10.15.19,14.94-1.42-2.63,1.52-4.45,4.34-4.77,7.35,11.58-6.98,27.23-6.48,38.35,1.21-1.93-1.47-3.86-2.94-5.8-4.41,13.59,3.52,27.18,7.04,40.77,10.57-5.34-1.83-10.2-5.04-13.98-9.23,7.58-.88,15.31-.43,22.74,1.31-4.44-4.53-8.89-9.05-13.33-13.58,8.29.86,16.57,1.72,24.86,2.58-14.21-3.01-27.52-10.18-37.86-20.39"/>
      <path d="M476.23,378.72c-9.24,4.21-17.42,10.6-23.74,18.55-.62.78-.57,1.78.3,2.36,3.41,2.26,7.43,3.05,11.45,2.46l-1.69-2.2c-1.97,4.35-4.92,8.21-8.72,11.13-1.22.94-.77,2.6.76,2.8,5.16.66,10.4.15,15.33-1.47l-1.16-2.74c-3.14,1.9-5.06,5.02-5.51,8.65-.15,1.16,1.37,1.82,2.26,1.3,11.26-6.7,26.03-6.17,36.83,1.21,1.62,1.11,3.01-1.45,1.51-2.59-1.93-1.47-3.86-2.94-5.8-4.41l-1.16,2.74c13.59,3.52,27.18,7.04,40.77,10.57,1.89.49,2.61-2.26.8-2.89-5.12-1.79-9.66-4.84-13.32-8.84l-1.06,2.56c7.48-.84,15.01-.43,22.34,1.26,1.44.33,2.54-1.41,1.46-2.51-4.44-4.53-8.89-9.05-13.33-13.58l-1.06,2.56c8.29.86,16.57,1.72,24.86,2.58,1.68.17,2.04-2.59.4-2.95-14.01-3.01-26.97-9.96-37.2-20-1.38-1.35-3.5.77-2.12,2.12,10.57,10.38,24.03,17.66,38.52,20.77l.4-2.95c-8.29-.86-16.57-1.72-24.86-2.58-1.35-.14-1.9,1.7-1.06,2.56,4.44,4.53,8.89,9.05,13.33,13.58l1.46-2.51c-7.58-1.75-15.4-2.23-23.14-1.36-1.28.14-1.99,1.54-1.06,2.56,4.01,4.39,9.04,7.65,14.64,9.61l.8-2.89c-13.59-3.52-27.18-7.04-40.77-10.57-1.75-.45-2.45,1.76-1.16,2.74,1.93,1.47,3.86,2.94,5.8,4.41l1.51-2.59c-11.66-7.97-27.74-8.42-39.86-1.21l2.26,1.3c.31-2.53,1.87-4.75,4.02-6.06,1.41-.86.51-3.29-1.16-2.74-4.72,1.55-9.62,2-14.54,1.37l.76,2.8c4.22-3.24,7.6-7.35,9.8-12.21.57-1.26-.36-2.4-1.69-2.2-3.22.47-6.45-.38-9.14-2.16l.3,2.36c6.18-7.78,14.09-13.96,23.14-18.08,1.75-.8.23-3.39-1.51-2.59h0Z"/>
    </g>
    <g>
      <path class="cls-13" d="M598.15,323.76c5.38-2.66,11.37-5.38,17.16-3.81,6.5,1.76,10.63,9.05,9.77,15.73s-5.99,12.36-12.22,14.93c-6.23,2.57-13.35,2.35-19.83.51"/>
      <path d="M598.9,325.06c4.69-2.31,10.2-5.03,15.57-3.77,4.01.94,7.08,4.2,8.42,8.03,3.05,8.77-3.49,17.47-11.65,20.32-5.76,2.01-11.99,1.65-17.8.04-1.86-.52-2.66,2.38-.8,2.89,11.02,3.06,24.01,1.35,30.86-8.73,2.84-4.18,3.95-9.42,2.59-14.34-1.29-4.65-4.55-8.78-9.1-10.57-6.63-2.61-13.68.61-19.61,3.53-1.73.85-.21,3.44,1.51,2.59h0Z"/>
    </g>
    <g>
      <path class="cls-10" d="M501.16,319.22c2.44-.06,3.96-3.31,2.75-5.44s-4.26-2.72-6.44-1.6-3.44,3.55-3.68,5.98c-.29,2.98.89,6.13,3.23,8s5.82,2.3,8.43.84c3.95-2.21,4.84-7.54,4.31-12.04-.55-4.6-2.63-9.61-6.99-11.16-4.97-1.77-10.39,1.94-13.05,6.5-3.26,5.59-3.75,12.87-.65,18.54s9.93,9.27,16.26,7.97c8.46-1.74,13.47-11.11,13.51-19.74.03-6.93-2.69-14.19-8.4-18.1-6.97-4.77-17.09-3.28-23.41,2.32s-9.07,14.5-8.58,22.94"/>
      <path class="cls-1" d="M501.16,320.72c3.6-.27,5.85-4.52,4.05-7.7-1.95-3.44-6.84-3.65-9.71-1.32-3.24,2.64-3.98,7.5-2.52,11.27s5.34,6.7,9.65,6.37c8.95-.7,9.9-11.9,7.77-18.59-1.15-3.61-3.4-6.96-7.06-8.34-3.92-1.47-8.1.14-11.16,2.68-6.73,5.6-8.51,16.26-4.67,23.97,3.5,7.03,12.25,11.33,19.86,8.76s11.68-9.95,12.72-17.26c1.12-7.86-1.29-16.89-7.68-21.99s-15.58-4.96-22.57-1.08c-7.46,4.15-11.6,12.35-12.65,20.58-.26,2.05-.33,4.1-.22,6.16.1,1.92,3.1,1.93,3,0-.35-6.71,1.25-13.78,5.51-19.11s10.44-8.01,16.98-7.43c14.04,1.24,18.09,19.19,12.2,29.91-2.9,5.27-8.36,9.05-14.57,7.71-6.71-1.45-11.31-7.38-11.57-14.16s3.21-14.58,10.12-16.13,9.8,6.98,9.78,12.36c-.01,2.8-.65,6.1-3.03,7.89-2.68,2.02-6.65,1.12-8.6-1.48s-2.17-6.55-.07-9.09c.91-1.1,2.23-1.74,3.67-1.53,1.2.17,2.43.97,2.45,2.29.01.96-.62,2.19-1.67,2.27-1.91.14-1.93,3.15,0,3h0Z"/>
    </g>
    <g>
      <path class="cls-10" d="M560.61,328.27c2.44-.06,3.96-3.31,2.75-5.44s-4.26-2.72-6.44-1.6-3.44,3.55-3.68,5.98c-.29,2.98.89,6.13,3.23,8s5.82,2.3,8.43.84c3.95-2.21,4.84-7.54,4.31-12.04-.55-4.6-2.63-9.61-6.99-11.16-4.97-1.77-10.39,1.94-13.05,6.5-3.26,5.59-3.75,12.87-.65,18.54s9.93,9.27,16.26,7.97c8.46-1.74,13.47-11.11,13.51-19.74.03-6.93-2.69-14.19-8.4-18.1-6.97-4.77-17.09-3.28-23.41,2.32-6.32,5.61-9.07,14.5-8.58,22.94"/>
      <path class="cls-1" d="M560.61,329.77c3.6-.27,5.85-4.52,4.05-7.7-1.95-3.44-6.84-3.65-9.71-1.32-3.24,2.64-3.98,7.5-2.52,11.27s5.34,6.7,9.65,6.37c8.95-.7,9.9-11.9,7.77-18.59-1.15-3.61-3.4-6.96-7.06-8.34-3.92-1.47-8.1.14-11.16,2.68-6.73,5.6-8.51,16.26-4.67,23.97,3.5,7.03,12.25,11.33,19.86,8.76s11.68-9.95,12.72-17.26c1.12-7.86-1.29-16.89-7.68-21.99s-15.58-4.96-22.57-1.08c-7.46,4.15-11.6,12.35-12.65,20.58-.26,2.05-.33,4.1-.22,6.16.1,1.92,3.1,1.93,3,0-.35-6.71,1.25-13.78,5.51-19.11s10.44-8.01,16.98-7.43c14.04,1.24,18.09,19.19,12.2,29.91-2.9,5.27-8.36,9.05-14.57,7.71-6.71-1.45-11.31-7.38-11.57-14.16-.25-6.45,3.21-14.58,10.12-16.13s9.8,6.98,9.78,12.36c-.01,2.8-.65,6.1-3.03,7.89-2.68,2.02-6.65,1.12-8.6-1.48s-2.17-6.55-.07-9.09c.91-1.1,2.23-1.74,3.67-1.53,1.2.17,2.43.97,2.45,2.29.01.96-.62,2.19-1.67,2.27-1.91.14-1.93,3.15,0,3h0Z"/>
    </g>
    <g>
      <path class="cls-4" d="M503.88,292.23c-9.53-2.58-20.04-1.36-28.73,3.34,2.18-5.55,7.62-9.68,13.56-10.28-8.25-1.32-16.87-.24-24.54,3.06,6.28-7.57,15.8-12.36,25.62-12.88-5.83-3.1-11.9-5.72-18.15-7.84,18.37-1.82,37.39,4.17,51.4,16.19,2.24,1.93,4.52,5.12,2.83,7.54-.88,1.27-2.52,1.71-4.04,2-5.48,1.02-11.13,1.08-16.63.18"/>
      <path d="M504.28,290.79c-10-2.65-20.76-1.38-29.89,3.49l2.2,1.69c2-4.92,6.84-8.58,12.11-9.18.75-.09,1.37-.51,1.47-1.3.09-.67-.34-1.53-1.07-1.65-8.75-1.35-17.55-.25-25.7,3.21l1.82,2.36c6.11-7.28,15.05-11.88,24.56-12.44,1.4-.08,2.15-2.06.76-2.8-5.95-3.15-12.14-5.82-18.51-7.99l-.4,2.95c10.31-.99,20.71.42,30.4,4.04,4.83,1.8,9.46,4.18,13.76,7.04,2.15,1.43,4.24,2.97,6.19,4.67,1.27,1.11,4.06,3.82,2.62,5.7-.79,1.03-2.45,1.21-3.63,1.42-1.59.28-3.2.47-4.82.57-3.52.23-7.07.08-10.55-.47-1.89-.3-2.7,2.59-.8,2.89,3.44.55,6.91.79,10.39.64,2.96-.14,6.33-.31,9.13-1.38,2.62-1,4.16-3.43,3.43-6.23-.69-2.66-2.86-4.64-4.9-6.3-9.04-7.37-19.92-12.43-31.37-14.62-6.54-1.25-13.22-1.6-19.85-.96-1.66.16-2.06,2.38-.4,2.95,6.13,2.09,12.07,4.66,17.79,7.69l.76-2.8c-10.26.6-20.06,5.43-26.68,13.32-1.14,1.36.25,3.02,1.82,2.36,7.32-3.11,15.52-4.13,23.39-2.91l.4-2.95c-6.74.76-12.45,5.1-15.01,11.38-.53,1.3,1.16,2.25,2.2,1.69,8.41-4.49,18.36-5.63,27.57-3.19,1.87.5,2.66-2.4.8-2.89h0Z"/>
    </g>
    <g>
      <path class="cls-13" d="M520.8,314.47c.15-5.19,5.46-9.61,10.59-8.81s8.84,6.63,7.4,11.62"/>
      <path d="M522.3,314.47c.19-4.35,4.81-8.23,9.16-7.27s7,5.58,5.88,9.69c-.51,1.86,2.38,2.66,2.89.8,1.24-4.52-.89-9.39-4.71-11.96-4.09-2.76-9.47-1.79-12.92,1.54-1.98,1.9-3.19,4.47-3.31,7.21-.09,1.93,2.92,1.93,3,0h0Z"/>
    </g>
    <g>
      <path class="cls-4" d="M579.97,321.04c6.56-.55,13.13-1.1,19.69-1.65"/>
      <path d="M579.97,322.54c6.56-.55,13.13-1.1,19.69-1.65,1.91-.16,1.93-3.16,0-3-6.56.55-13.13,1.1-19.69,1.65-1.91.16-1.93,3.16,0,3h0Z"/>
    </g>
    <g>
      <path class="cls-4" d="M576.83,298.06c9.74-1.66,20.08.57,28.28,6.08-1.64-5.74-6.66-10.37-12.51-11.53,8.34-.52,16.81,1.37,24.13,5.4-5.52-8.14-14.54-13.82-24.26-15.28,6.1-2.53,12.4-4.56,18.82-6.06-18.11-3.58-37.62.56-52.72,11.18-2.42,1.7-4.99,4.66-3.54,7.24.75,1.35,2.35,1.95,3.83,2.37,5.35,1.54,10.98,2.15,16.54,1.78"/>
      <path d="M577.23,299.51c9.41-1.55,19.2.66,27.12,5.93,1.1.73,2.57-.48,2.2-1.69-1.87-6.26-7.14-11.22-13.56-12.58l-.4,2.95c8.13-.47,16.22,1.31,23.38,5.2,1.24.67,2.95-.75,2.05-2.05-5.81-8.47-14.99-14.38-25.16-15.97v2.89c6.11-2.52,12.39-4.54,18.82-6.06,1.4-.33,1.47-2.61,0-2.89-11.57-2.25-23.63-1.55-34.88,2-5.57,1.76-10.94,4.2-15.9,7.28-2.41,1.5-4.9,3.05-6.55,5.41-1.52,2.17-1.79,5.11.25,7.06,1.05,1.01,2.47,1.54,3.85,1.94,1.83.54,3.71.95,5.59,1.25,3.76.61,7.55.81,11.35.58,1.92-.12,1.93-3.12,0-3-3.02.19-6.05.12-9.06-.25-2.76-.34-5.86-.8-8.43-1.92-5.71-2.5,3.79-8.06,5.94-9.33,8.97-5.27,19.19-8.42,29.57-9.16,5.85-.41,11.73-.08,17.48,1.03v-2.89c-6.43,1.52-12.71,3.55-18.82,6.06-1.18.48-1.65,2.64,0,2.89,9.39,1.47,17.97,6.74,23.37,14.59l2.05-2.05c-7.6-4.13-16.25-6.11-24.89-5.61-1.6.09-2.14,2.58-.4,2.95,5.4,1.14,9.88,5.18,11.46,10.49l2.2-1.69c-8.63-5.74-19.23-7.91-29.43-6.23-1.9.31-1.09,3.2.8,2.89h0Z"/>
    </g>
    <g>
      <path class="cls-9" d="M531.22,246.95c24.33-7.74,40.82-34.79,36.56-59.97s-28.74-45.29-54.26-44.59c20.23-9.29,43.91-6.16,65.4-.39,11.91,3.2,23.85,7.27,33.77,14.61,16.04,11.85,25.21,31.21,28.81,50.83s2.22,39.77.83,59.67"/>
      <path d="M531.62,248.39c19.4-6.25,33.99-24.15,37.49-44.07,1.78-10.14.57-20.46-3.62-29.87s-11.13-17.43-19.49-23.34c-9.43-6.66-20.9-10.5-32.48-10.23l.76,2.8c13.18-6,28.02-6.58,42.19-4.77,7.16.92,14.24,2.46,21.21,4.31s14.06,3.98,20.72,6.94c6.31,2.8,12.3,6.35,17.46,10.95,4.74,4.22,8.79,9.16,12.15,14.54,7.07,11.33,11.06,24.3,12.89,37.46,2.49,17.89,1.18,36.06-.07,53.99-.13,1.93,2.87,1.92,3,0,1.15-16.48,2.3-33.09.6-49.57-1.43-13.88-4.96-27.6-11.75-39.86-6.66-12.03-16.37-21.86-28.65-28.14-6.59-3.37-13.62-5.82-20.72-7.86s-14.47-3.83-21.85-5.03c-14.48-2.36-29.74-2.63-43.72,2.42-1.69.61-3.34,1.3-4.98,2.04-1.39.63-.66,2.83.76,2.8,19.65-.46,38.45,11.46,47.68,28.6,4.56,8.48,6.46,18.07,5.5,27.65s-4.74,18.78-10.38,26.52c-6.32,8.69-15.23,15.53-25.49,18.84-1.83.59-1.05,3.49.8,2.89h0Z"/>
    </g>
    <g>
      <path class="cls-4" d="M568.8,275.24l-38.9-8.24c-5.48-1.16-12.02-3.35-13.08-8.85-.69-3.59,1.53-7.25,4.56-9.3s6.73-2.8,10.34-3.39c39.44-6.46,81.13,1.87,115.07,23,2.84,1.77,5.77,3.78,7.17,6.82s.52,7.37-2.6,8.57c-1.82.7-3.85.21-5.74-.29-12.12-3.2-24.23-6.4-36.35-9.6"/>
      <path d="M569.2,273.79c-9.4-1.99-18.8-3.98-28.2-5.98-4.31-.91-8.69-1.68-12.95-2.8-2.9-.76-6.04-1.82-8.14-4.06-2.43-2.59-2.01-6.25.14-8.88,2.58-3.17,6.77-4.23,10.61-4.93,8.04-1.46,16.24-2.15,24.41-2.3,16.44-.31,32.89,1.84,48.71,6.3,7.95,2.24,15.74,5.06,23.26,8.46s14.72,7,21.27,11.63c2.64,1.87,5.35,4.65,4.69,8.16-.25,1.34-.97,2.6-2.3,3.08-2.04.74-4.62-.36-6.6-.88-9.17-2.42-18.33-4.84-27.5-7.26-2.31-.61-4.62-1.22-6.93-1.83-1.87-.49-2.67,2.4-.8,2.89,9.96,2.63,19.93,5.26,29.89,7.9,2.44.65,4.88,1.34,7.34,1.93,2.17.52,4.52.78,6.56-.34,2.97-1.63,3.89-5.45,3.23-8.56-.82-3.85-4.22-6.53-7.35-8.55-3.72-2.41-7.61-4.6-11.54-6.65-7.86-4.11-16.06-7.59-24.47-10.41-16.83-5.66-34.58-8.67-52.34-8.88-8.81-.11-17.62.5-26.33,1.78-4.33.64-8.9,1.27-12.69,3.6-3.31,2.03-5.98,5.62-5.96,9.63.04,7.89,9.04,10.48,15.27,11.8,10.13,2.15,20.26,4.29,30.39,6.44l7.54,1.6c1.88.4,2.69-2.49.8-2.89h0Z"/>
    </g>
    <g>
      <path class="cls-9" d="M640.15,401.89c14.2,22.3,19.24,50.25,13.72,76.11-1.78,8.35-4.61,16.47-5.86,24.92-1.26,8.44-.79,17.52,3.62,24.84"/>
      <path d="M638.85,402.65c8.89,14.03,14.2,30.22,15.42,46.78.61,8.3.25,16.68-1.21,24.88-1.61,9.05-4.75,17.74-6.28,26.81-1.56,9.22-1.34,19.14,3.54,27.4.98,1.66,3.58.15,2.59-1.51-9.45-15.98-.09-34.88,2.93-51.27,3-16.29,1.99-33.28-2.79-49.13-2.7-8.96-6.61-17.56-11.62-25.46-1.03-1.63-3.63-.12-2.59,1.51h0Z"/>
    </g>
    <g>
      <path class="cls-9" d="M642.26,457.68c-7.44,34.42-30,65.3-60.54,82.84"/>
      <path d="M640.82,457.28c-2.9,13.3-8.01,26.04-15.03,37.71-6.98,11.6-15.79,22.08-26.05,30.92-5.82,5.02-12.12,9.47-18.78,13.31-1.67.96-.16,3.56,1.51,2.59,12-6.92,22.82-15.85,31.96-26.25s16.72-22.36,22.15-35.18c3.05-7.2,5.45-14.66,7.12-22.3.41-1.88-2.48-2.69-2.89-.8h0Z"/>
    </g>
    <g>
      <path class="cls-9" d="M649.42,397.54c7.64,39,33.5,74.03,68.51,92.82"/>
      <path d="M647.97,397.94c3.03,15.34,8.83,30.11,16.89,43.5,8.06,13.39,18.37,25.46,30.41,35.43,6.8,5.63,14.13,10.6,21.9,14.79,1.7.92,3.22-1.67,1.51-2.59-13.56-7.3-25.72-17-35.99-28.47s-18.53-24.55-24.36-38.7c-3.29-7.98-5.8-16.28-7.47-24.75-.37-1.89-3.27-1.09-2.89.8h0Z"/>
    </g>
    <g>
      <path class="cls-7" d="M488.63,145.97c1.26-6.95,7.1-12.89,14.07-14.06s14.53,2.66,17.53,9.05,1,14.8-4.68,18.99-14.46,3.56-19.32-1.56c3.04,0,6.2-.63,8.59-2.51s3.79-5.22,2.75-8.08c-1.14-3.14-4.82-4.75-8.15-4.58s-6.41,1.75-9.38,3.28"/>
      <path d="M490.08,146.37c.97-5.05,4.28-9.4,8.89-11.69s10.12-1.78,14.46.91,6.89,7.32,6.68,12.44-2.9,9.69-7.38,11.89c-5.02,2.46-11.53,1.42-15.44-2.58l-1.06,2.56c3.74-.04,7.77-.91,10.47-3.69,2.39-2.46,3.52-6.26,2.04-9.48s-4.71-4.68-7.93-4.97c-4.09-.37-8.01,1.64-11.53,3.46-1.72.89-.2,3.48,1.51,2.59,2.73-1.41,5.65-2.98,8.79-3.09,2.32-.08,5.03.79,6.25,2.91,1.29,2.25.24,5.05-1.53,6.71-2.14,2.01-5.26,2.52-8.09,2.55-1.3.01-1.97,1.63-1.06,2.56,4.2,4.29,10.75,5.77,16.47,4.07s10.02-6.79,11.14-12.7-.83-12.18-5.54-16.16-11.26-5.57-17.15-3.67c-6.5,2.1-11.6,7.85-12.9,14.56-.36,1.89,2.53,2.69,2.89.8h0Z"/>
    </g>
    <polygon class="cls-4" points="589.3 170.27 579.53 167.96 574.32 176.53 573.5 166.53 563.73 164.22 572.99 160.35 572.17 150.35 578.72 157.95 587.97 154.08 582.76 162.66 589.3 170.27"/>
    <polygon class="cls-4" points="628.72 229.39 622.82 221.15 613.15 224.21 619.17 216.05 613.27 207.8 622.89 211.01 628.91 202.85 628.84 212.99 638.45 216.19 628.79 219.25 628.72 229.39"/>
    <polygon class="cls-4" points="585.65 226.47 578.35 224.35 574.08 230.63 573.84 223.04 566.54 220.91 573.7 218.34 573.46 210.74 578.12 216.75 585.27 214.18 580.99 220.46 585.65 226.47"/>
    <polygon class="cls-4" points="541.39 526.85 528.7 520.46 518.7 530.55 520.86 516.51 508.18 510.12 522.2 507.83 524.35 493.79 530.86 506.42 544.88 504.13 534.88 514.22 541.39 526.85"/>
    <polygon class="cls-4" points="603.24 474.87 590.45 464.29 576.45 473.19 582.55 457.76 569.77 447.19 586.32 448.23 592.43 432.8 596.56 448.87 613.12 449.9 599.11 458.8 603.24 474.87"/>
    <polygon class="cls-4" points="703.17 403.03 696.66 413.97 705.06 423.54 692.64 420.74 686.14 431.68 684.97 419 672.56 416.2 684.25 411.17 683.08 398.49 691.47 408.06 703.17 403.03"/>
    <polygon class="cls-4" points="688.73 516.33 675.47 508.99 664.4 519.33 667.28 504.46 654.03 497.12 669.06 495.27 671.95 480.39 678.36 494.12 693.4 492.27 682.32 502.6 688.73 516.33"/>
    <g>
      <path class="cls-12" d="M697.83,381.04c-5.23-2.03-10.92-2.55-16.24-4.32s-10.6-5.28-12.11-10.68c-.89-3.18-.34-6.56.21-9.82,1.82-10.75,3.64-21.5,5.46-32.25.38-2.22.83-4.61,2.46-6.17,2.53-2.45,6.63-1.83,10.05-1.01,7.7,1.84,15.35,3.87,22.94,6.09,2.39.7,4.97,1.55,6.35,3.62,1.57,2.35,1.1,5.46.56,8.23-1.91,9.86-3.81,19.71-5.72,29.57-1.03,5.32-2.22,10.96-5.96,14.87s-10.97,5-14.31.73"/>
      <path d="M698.23,379.59c-5.93-2.26-12.47-2.57-18.3-5.1-4.93-2.14-9.25-5.99-9.41-11.69-.1-3.38.72-6.78,1.28-10.09s1.16-6.84,1.74-10.26,1.16-6.84,1.74-10.26.95-6.64,1.72-9.87c.65-2.74,2.16-4.6,5.12-4.74s5.7.78,8.44,1.46c6.58,1.62,13.14,3.37,19.65,5.29,2.45.72,5.35,1.6,6.11,4.37.8,2.92-.39,6.41-.95,9.28-1.33,6.87-2.66,13.74-3.99,20.6-.66,3.41-1.23,6.86-2.09,10.23-.76,2.98-1.8,5.99-3.74,8.43-2.95,3.71-9.51,5.84-12.97,1.62-1.23-1.49-3.34.64-2.12,2.12,3.45,4.2,9.88,3.84,14.14,1.13,5.2-3.31,7.08-9.74,8.25-15.44,1.56-7.58,2.95-15.2,4.42-22.8.69-3.57,1.52-7.15,2.03-10.75.45-3.13.24-6.51-2.26-8.77s-5.83-2.85-8.84-3.71c-3.57-1.02-7.15-2-10.75-2.94s-7.2-1.95-10.85-2.67c-2.83-.56-6.01-.85-8.63.64s-3.63,4.36-4.15,7.17c-.7,3.82-1.3,7.67-1.95,11.5-1.29,7.63-2.67,15.26-3.87,22.9-.62,3.94-.87,7.92.95,11.59,1.4,2.83,3.84,5.07,6.49,6.72,6.67,4.14,14.78,4.22,21.98,6.96,1.81.69,2.59-2.21.8-2.89h0Z"/>
    </g>
    <g>
      <path class="cls-12" d="M666.3,360.12c-1.96-8.51-3.93-17.39-1.89-25.88.61-2.54,1.69-5.15,3.86-6.62s5.62-1.21,6.88,1.08"/>
      <path d="M667.74,359.72c-1.6-6.96-3.23-14.09-2.53-21.29.27-2.83.83-6.28,2.75-8.53,1.37-1.61,4.53-2.69,5.89-.45,1,1.65,3.6.14,2.59-1.51-1.68-2.76-5.29-3.37-8.1-2.07-3.24,1.49-4.75,5.16-5.48,8.43-1.95,8.73.03,17.68,2,26.22.43,1.88,3.33,1.08,2.89-.8h0Z"/>
    </g>
    <g>
      <path class="cls-12" d="M698.04,381.36c3.45.47,5.87,3.48,8.55,5.7s7.06,3.58,9.36.96c1.6-1.82,1.21-4.77-.22-6.73s-3.66-3.16-5.8-4.29c8.56-4.75,16.03-11.45,21.68-19.45,1.93-2.73,3.67-6.42,1.88-9.24-1.1-1.74-3.19-2.51-5.13-3.18-7.21-2.47-14.42-4.93-21.63-7.4"/>
      <path d="M697.64,382.8c3.42.56,5.58,3.49,8.15,5.52,2.37,1.88,5.84,3.34,8.87,2.28,3.19-1.11,4.43-4.58,3.51-7.68-1.06-3.6-4.38-5.58-7.5-7.23v2.59c7.88-4.41,14.85-10.37,20.38-17.51,2.47-3.19,5.77-7.52,4.37-11.82s-7.07-5.41-10.91-6.72c-5.8-1.98-11.6-3.97-17.4-5.95-1.83-.63-2.62,2.27-.8,2.89,4.55,1.55,9.09,3.11,13.64,4.66,2.35.8,4.7,1.61,7.05,2.41,1.65.56,3.66,1.05,4.86,2.41,2.72,3.06-1.3,7.89-3.17,10.3-2.5,3.22-5.32,6.19-8.37,8.88-3.43,3.02-7.18,5.63-11.16,7.86-.96.54-.99,2.06,0,2.59,2.41,1.28,5.41,2.75,6.17,5.61.67,2.51-1.01,4.38-3.55,4s-4.51-2.21-6.39-3.92c-2.01-1.83-4.18-3.62-6.95-4.07-1.89-.31-2.7,2.58-.8,2.89h0Z"/>
    </g>
    <g>
      <path class="cls-12" d="M670.37,360.78c-.69-13.17,1.48-26.49,6.32-38.76"/>
      <path d="M671.87,360.78c-.65-13.09,1.49-26.16,6.27-38.36.7-1.8-2.2-2.58-2.89-.8-4.87,12.42-7.04,25.84-6.38,39.16.1,1.92,3.1,1.93,3,0h0Z"/>
    </g>
    <g>
      <path class="cls-12" d="M683.45,284.24c-2.74-6.51-4.46-13.46-5.08-20.49-.13-1.53-.15-3.27.93-4.36,1.67-1.69,4.52-.64,6.54.61,6.48,4.02,12.19,9.28,16.72,15.41"/>
      <path d="M684.9,283.84c-1.83-4.4-3.23-8.97-4.12-13.65-.43-2.24-.78-4.52-.93-6.8-.11-1.69.07-3.64,2.23-3.34,1.89.26,3.61,1.59,5.14,2.63,1.76,1.2,3.46,2.5,5.07,3.88,3.33,2.86,6.35,6.08,8.97,9.6,1.14,1.53,3.75.04,2.59-1.51-4.72-6.34-10.6-11.97-17.4-16.04-2.66-1.59-6.72-2.7-8.77.42-1,1.52-.93,3.43-.77,5.17.2,2.12.49,4.24.88,6.33.89,4.84,2.32,9.56,4.21,14.1.31.75.99,1.27,1.85,1.05.71-.19,1.36-1.1,1.05-1.85h0Z"/>
    </g>
    <g>
      <path class="cls-12" d="M732.07,288.09l31.5-7.79c1.26-.31,2.8-.55,3.69.39,1.48,1.56-.49,3.95-2.28,5.14-6.57,4.39-13.15,8.77-19.72,13.16"/>
      <path d="M732.47,289.54c8.32-2.06,16.64-4.11,24.96-6.17,2.02-.5,4.04-1,6.06-1.5.95-.23,3.57-.89,2.48.92-.93,1.54-2.76,2.43-4.21,3.39-1.71,1.14-3.42,2.28-5.14,3.43-4.04,2.7-8.08,5.39-12.12,8.09-1.6,1.07-.1,3.67,1.51,2.59,4.11-2.74,8.22-5.48,12.33-8.22,2.05-1.37,4.11-2.74,6.16-4.11,1.61-1.08,3.29-2.17,4.22-3.94.82-1.56.74-3.41-.66-4.61-1.52-1.3-3.62-.86-5.38-.43-4.85,1.19-9.69,2.4-14.54,3.59-5.49,1.36-10.99,2.72-16.48,4.07-1.87.46-1.08,3.36.8,2.89h0Z"/>
    </g>
    <g>
      <path class="cls-12" d="M693.55,325.66c-4.41-5.3-8.89-10.7-11.55-17.06s-3.26-13.95.06-19.99c2.79-5.08,7.99-8.45,13.44-10.4,8.9-3.17,18.97-2.94,27.72.63s16.11,10.45,20.25,18.94c2.85,5.84,4.15,12.92,1.35,18.78-3.44,7.21-11.99,10.5-19.94,11.32s-16.1-.14-23.88,1.67"/>
      <path d="M694.61,324.6c-7.24-8.69-16.02-19.65-12.64-31.8,3.17-11.38,17.15-15.59,27.67-15.29,11.31.32,22.1,5.9,28.86,14.99,3.33,4.48,5.98,9.86,6.34,15.5.34,5.41-1.77,10.41-6.21,13.59-11.02,7.91-25.59,3.69-38.02,6.5-1.88.43-1.09,3.32.8,2.89,12.39-2.8,26.02,1.03,37.43-5.94,4.97-3.04,8.32-7.85,8.94-13.7.65-6.2-1.63-12.48-4.85-17.68-6.42-10.34-17.3-17.35-29.37-18.86-6.43-.81-13.11-.08-19.17,2.23-5.48,2.09-10.73,5.57-13.61,10.82-3.42,6.22-3.01,13.91-.52,20.37,2.69,6.99,7.5,12.8,12.24,18.49,1.24,1.48,3.35-.65,2.12-2.12h0Z"/>
    </g>
    <g>
      <path class="cls-4" d="M699.39,287.5c-2.49,1.44-2.8,5.52-.56,7.32s6.16.63,7.03-2.12-1.64-5.97-4.51-5.8"/>
      <path d="M698.64,286.21c-1.86,1.11-2.9,3.29-2.81,5.43.1,2.3,1.37,4.31,3.53,5.18,1.87.75,4.24.35,5.85-.85.94-.71,1.63-1.57,2.05-2.68s.37-2.33.04-3.41c-.79-2.52-3.2-4.59-5.93-4.46-.78.04-1.54.66-1.5,1.5.04.78.66,1.54,1.5,1.5.08,0,.58-.06.62.02l-.19-.03c.07.01.13.02.2.04.1.02.2.05.3.08.04.01.27.06.29.1,0,0-.34-.16-.08-.03.22.11.43.22.63.36l.09.06c.13.1.11.08-.06-.05.07.02.18.15.24.2.13.12.25.24.36.37.07.08.31.25.03.02.07.06.13.18.18.26.12.19.23.39.33.59l.02.05c.07.15.06.13-.03-.07.05.04.08.24.1.29.02.06.19.57.14.6l-.02-.2c0,.07.01.14.02.2,0,.09,0,.17,0,.26s0,.17,0,.26c0,.07-.01.14-.02.2.03-.23.03-.26,0-.09-.05.2-.1.39-.17.58-.1.31.17-.3,0-.02-.03.05-.06.11-.09.16-.05.08-.09.16-.14.24l-.05.08c-.09.13-.07.1.07-.08-.13.05-.33.37-.44.47-.05.04-.09.08-.14.12-.24.22.28-.19,0,0-.16.1-.31.21-.47.3-.08.05-.17.09-.25.13-.29.14-.08-.04.01,0-.07-.03-.45.15-.54.18-.15.04-.42.04-.55.12l.21-.03c-.06,0-.12.01-.19.02-.06,0-.12,0-.19.01-.19,0-.37,0-.56,0h-.09c-.16-.03-.12-.02.12.01-.08-.05-.26-.05-.36-.07-.15-.04-.29-.09-.44-.14-.31-.1.31.16.02,0-.08-.04-.17-.08-.25-.13s-.16-.1-.24-.15c-.28-.17.24.23,0,0-.14-.13-.27-.26-.4-.39-.23-.23.18.28,0,.01-.05-.08-.1-.15-.15-.23-.09-.14-.15-.3-.24-.45-.1-.18.12.36.03.06-.03-.09-.06-.18-.09-.26-.05-.18-.05-.48-.14-.64l.03.21c0-.06-.01-.12-.02-.19,0-.09-.01-.19-.01-.28,0-.22,0-.44.03-.66.03-.34-.07.36,0,.03.03-.12.05-.25.08-.37.05-.18.11-.36.17-.54.11-.31-.16.31,0,.02.06-.11.11-.22.17-.33.05-.08.1-.16.15-.24l.05-.08c.09-.13.07-.1-.07.08.11-.02.35-.38.45-.47.25-.22.05.03-.01,0,.02.01.28-.18.32-.21.67-.4.98-1.37.54-2.05s-1.33-.97-2.05-.54h0Z"/>
    </g>
    <g>
      <path class="cls-4" d="M705.11,306.12c1.38,4.07-2.15,8.97-6.45,8.95s-7.78-4.95-6.37-9"/>
      <path d="M703.66,306.52c.09.28.21.76.23.93.02.19.02.71,0,1.02-.02.22-.06.44-.15.81-.1.39-.23.72-.34.95-.64,1.29-1.49,2.22-2.73,2.86-.34.18-.38.19-.78.3-.18.05-.37.1-.56.13-.17.03-.04.01,0,0-.11.01-.22.02-.33.03-.76.04-1.25-.03-2.02-.34-1.06-.43-2.12-1.43-2.74-2.53-.38-.67-.61-1.27-.73-2.11.03.2,0-.06,0-.09,0-.11-.01-.22-.02-.33,0-.22,0-.44.02-.65,0,0,.03-.26,0-.13-.01.1.03-.18.04-.21.05-.24.12-.48.2-.72.26-.77-.3-1.64-1.05-1.85-.82-.22-1.59.28-1.85,1.05-1.27,3.82.9,8.31,4.45,10.06,3.88,1.92,8.29.16,10.42-3.47,1.14-1.95,1.54-4.36.84-6.53-.25-.77-1.04-1.27-1.85-1.05-.76.21-1.3,1.07-1.05,1.85h0Z"/>
    </g>
    <g>
      <path class="cls-4" d="M705.74,307c-1.89,3.14-.21,7.83,3.25,9.06s7.72-1.36,8.23-4.99"/>
      <path d="M704.45,306.24c-1.76,3.03-1.05,7.05,1.37,9.51,2.57,2.61,6.73,2.71,9.64.6,1.62-1.17,2.89-2.87,3.21-4.89.12-.8-.2-1.61-1.05-1.85-.71-.2-1.72.24-1.85,1.05-.05.32-.12.63-.22.93-.02.07-.15.38-.11.3.07-.15-.06.12-.08.15-.05.09-.09.17-.14.26-.07.13-.15.25-.23.37-.02.03-.2.27-.1.14.09-.11-.06.07-.07.08-.23.26-.46.51-.72.73-.05.04-.33.26-.16.13-.14.1-.28.2-.43.29-.13.08-.25.15-.38.22-.07.03-.13.07-.2.1-.03.01-.37.17-.22.11.08-.03-.23.08-.3.11-.16.05-.33.1-.49.14-.14.04-.29.06-.43.09-.01,0-.25.04-.09.02s-.25.02-.24.02c-.29.02-.58,0-.87-.02.27.02-.17-.03-.25-.05-.17-.04-.33-.08-.5-.13-.09-.03-.18-.06-.27-.1.03.01.19.09.03.01-.13-.06-.25-.12-.38-.19-.14-.08-.28-.17-.42-.26,0,0-.2-.14-.07-.05.11.09-.1-.09-.12-.1-.23-.2-.43-.42-.64-.65-.18-.19.04.08-.11-.14-.11-.16-.21-.31-.31-.47-.07-.12-.14-.25-.21-.37-.03-.06-.2-.43-.16-.34.04.1-.08-.22-.1-.29-.06-.18-.11-.36-.16-.55-.04-.16-.07-.32-.1-.49-.01-.05-.03-.29,0-.02,0-.09-.02-.19-.02-.28-.02-.35-.01-.7.02-1.06.01-.18,0,.02,0,.05.02-.09.03-.18.05-.28.04-.18.09-.36.14-.54.03-.09.21-.52.1-.3.08-.17.17-.34.27-.5.97-1.67-1.62-3.18-2.59-1.51h0Z"/>
    </g>
    <g>
      <path class="cls-4" d="M719.62,295.4c-2.49,1.44-2.8,5.52-.56,7.32s6.16.63,7.03-2.12-1.64-5.97-4.51-5.8"/>
      <path d="M718.86,294.11c-1.86,1.11-2.9,3.29-2.81,5.43.1,2.3,1.37,4.31,3.53,5.18,1.87.75,4.24.35,5.85-.85.94-.71,1.63-1.57,2.05-2.68s.37-2.33.04-3.41c-.79-2.52-3.2-4.59-5.93-4.46-.78.04-1.54.66-1.5,1.5.04.78.66,1.54,1.5,1.5.08,0,.58-.06.62.02l-.19-.03c.07.01.13.02.2.04.1.02.2.05.3.08.04.01.27.06.29.1,0,0-.34-.16-.08-.03.22.11.43.22.63.36l.09.06c.13.1.11.08-.06-.05.07.02.18.15.24.2.13.12.25.24.36.37.07.08.31.25.03.02.07.06.13.18.18.26.12.19.23.39.33.59l.02.05c.07.15.06.13-.03-.07.05.04.08.24.1.29.02.06.19.57.14.6l-.02-.2c0,.07.01.14.02.2,0,.09,0,.17,0,.26s0,.17,0,.26c0,.07-.01.14-.02.2.03-.23.03-.26,0-.09-.05.2-.1.39-.17.58-.1.31.17-.3,0-.02-.03.05-.06.11-.09.16-.05.08-.09.16-.14.24l-.05.08c-.09.13-.07.1.07-.08-.13.05-.33.37-.44.47-.05.04-.09.08-.14.12-.24.22.28-.19,0,0-.16.1-.31.21-.47.3-.08.05-.17.09-.25.13-.29.14-.08-.04.01,0-.07-.03-.45.15-.54.18-.15.04-.42.04-.55.12l.21-.03c-.06,0-.12.01-.19.02-.06,0-.12,0-.19.01-.19,0-.37,0-.56,0h-.09c-.16-.03-.12-.02.12.01-.08-.05-.26-.05-.36-.07-.15-.04-.29-.09-.44-.14-.31-.1.31.16.02,0-.08-.04-.17-.08-.25-.13s-.16-.1-.24-.15c-.28-.17.24.23,0,0-.14-.13-.27-.26-.4-.39-.23-.23.18.28,0,.01-.05-.08-.1-.15-.15-.23-.09-.14-.15-.3-.24-.45-.1-.18.12.36.03.06-.03-.09-.06-.18-.09-.26-.05-.18-.05-.48-.14-.64l.03.21c0-.06-.01-.12-.02-.19,0-.09-.01-.19-.01-.28,0-.22,0-.44.03-.66.03-.34-.07.36,0,.03.03-.12.05-.25.08-.37.05-.18.11-.36.17-.54.11-.31-.16.31,0,.02.06-.11.11-.22.17-.33.05-.08.1-.16.15-.24l.05-.08c.09-.13.07-.1-.07.08.11-.02.35-.38.45-.47.25-.22.05.03-.01,0,.02.01.28-.18.32-.21.67-.4.98-1.37.54-2.05s-1.33-.97-2.05-.54h0Z"/>
    </g>
    <g>
      <path class="cls-12" d="M720.64,373.41c7.93,3.81,18.23,1.93,24.29-4.45,6.07-6.38,7.43-16.75,3.23-24.48-2-3.68-5.19-7.94-3.03-11.53,1.67-2.78,5.92-3.03,8.6-1.21s4.04,5.05,4.78,8.2c1.59,6.78.96,13.89-.2,20.77-1.24,7.34-3.56,15.29-9.83,19.31-4.28,2.74-9.61,3.11-14.69,3.4-6.97.39-14.76.51-19.93-4.18"/>
      <path d="M719.88,374.71c9,4.22,20.68,2.06,27.06-5.77,3.12-3.83,4.87-8.59,5.11-13.51.12-2.46-.15-4.98-.83-7.35s-1.93-4.63-3.19-6.84c-1.18-2.07-3.09-5.15-1.62-7.53,1.06-1.71,3.44-1.92,5.2-1.34,5.19,1.71,6.06,9.63,6.28,14.14.3,6-.5,12.16-1.88,18-1.12,4.73-2.9,9.6-6.6,12.93-4.77,4.3-11.88,4.37-17.94,4.6-5.65.22-12.09.1-16.57-3.85-1.44-1.27-3.57.84-2.12,2.12,4.31,3.8,9.99,4.76,15.57,4.79,2.8.02,5.61-.14,8.41-.37,3.08-.24,6.21-.64,9.11-1.75,11.22-4.32,13.64-17.56,14.74-28.16.66-6.31.64-13.31-2-19.21-2.04-4.55-6.93-8.1-11.98-5.86-2.36,1.05-3.8,3.44-3.74,6.01.07,2.8,1.59,5.36,2.95,7.72s2.48,4.76,2.96,7.51c.44,2.51.36,5.14-.18,7.63-1.25,5.81-4.9,10.66-10.27,13.26s-11.68,2.73-16.98.24c-1.74-.82-3.26,1.77-1.51,2.59h0Z"/>
    </g>
    <g>
      <path class="cls-12" d="M672.59,370.03c-1.97-2.6-1.55-6.69.9-8.84s6.57-2.02,8.88.28,2.47,6.41.34,8.88"/>
      <path d="M673.88,369.27c-.25-.33-.45-.68-.64-1.05s.05.16-.03-.08c-.04-.11-.08-.21-.11-.32-.07-.22-.13-.44-.17-.66,0,.01-.08-.43-.04-.21s-.02-.22-.02-.21c-.02-.18-.02-.37-.02-.55,0-.23.02-.46.03-.69,0-.06.04-.29,0-.01.02-.14.04-.27.07-.41.08-.4.2-.8.36-1.18-.11.26.13-.24.17-.32.12-.22.26-.43.4-.64.16-.24.05-.07.01-.02.07-.09.15-.17.22-.26.14-.15.29-.3.44-.43.07-.06.14-.12.21-.18-.21.16.04-.01.09-.05.21-.14.43-.27.66-.38.08-.04.17-.08.25-.12-.24.1-.02.01.03,0,.22-.07.44-.15.66-.2.18-.05.36-.08.54-.11.43-.08-.18.01.08,0,.14-.01.28-.02.42-.03.21,0,.42,0,.63,0,.12,0,.23.02.35.03.26.02-.35-.07.08.01s.85.19,1.27.34c.25.09-.3-.16.09.04.08.04.17.08.25.12.18.1.36.2.54.31.1.06.19.13.28.2-.05-.04-.19-.17.02.02.17.16.34.31.5.48-.02-.02.28.33.15.17s.14.2.13.18c.12.17.22.35.32.53.06.1.1.21.16.31.02.04.11.26.01.02.09.21.16.43.22.66.07.25.12.49.17.75s-.02-.36.01.08c0,.14.02.28.03.42,0,.23,0,.46,0,.7,0,.09-.02.18-.02.28-.03.36.05-.17-.02.15-.06.27-.11.54-.2.81-.03.09-.06.18-.09.26-.01.03-.19.42-.06.15-.1.21-.2.41-.32.61-.06.1-.12.2-.19.29-.04.06-.08.11-.12.17.09-.12.08-.11-.03.02-.52.62-.61,1.51,0,2.12.54.54,1.6.62,2.12,0,1.61-1.91,2.2-4.34,1.8-6.79-.37-2.26-1.76-4.33-3.78-5.43s-4.56-1.35-6.74-.58c-2.31.82-4.01,2.58-4.79,4.9s-.48,5.25,1.03,7.28c.48.65,1.3.98,2.05.54.64-.38,1.02-1.4.54-2.05h0Z"/>
    </g>
    <g>
      <path class="cls-12" d="M691.64,376.71c-2.35-2.78-1.72-7.55,1.28-9.61s7.68-.95,9.43,2.24.18,7.74-3.17,9.16"/>
      <path d="M692.7,375.65c-.29-.35.12.23-.12-.16-.05-.08-.11-.16-.16-.24-.13-.2-.24-.42-.34-.63.1.22,0,0-.01-.04-.05-.14-.1-.27-.14-.41-.07-.23-.11-.46-.17-.7-.1-.44,0,.28-.03-.17,0-.1-.02-.19-.02-.29-.01-.24-.02-.48,0-.72,0-.1.01-.19.02-.29,0-.03.07-.49.02-.18.04-.24.09-.47.15-.71.23-.85.6-1.57,1.15-2.15.15-.16.31-.3.47-.45.32-.29-.21.12.16-.12.08-.05.16-.11.24-.16.2-.13.42-.24.64-.34-.22.1,0,0,.04-.01.16-.05.32-.11.48-.15.21-.06.42-.1.63-.14.44-.08-.28,0,.17-.02.1,0,.19-.01.29-.02.24,0,.48,0,.72,0,.1,0,.19.02.29.02.18.02.19.02.03,0,.07.01.14.02.21.04,1.05.24,1.53.4,2.41,1.03.22.16-.24-.23.09.07.07.06.14.12.21.19.18.16.34.34.5.52.3.33-.08-.12.07.09.07.1.14.2.2.3.05.08.1.17.15.25.03.06.22.45.17.34-.08-.19.09.25.08.22.03.09.06.18.08.27.07.23.12.46.15.7-.05-.28,0,.03,0,.1,0,.12.02.24.02.36,0,.29,0,.58-.03.86,0,.05-.05.29,0,.03-.02.14-.05.28-.08.43-.06.28-.15.56-.24.83-.03.09-.07.18-.1.27.1-.25-.09.19-.12.23-.12.24-.25.47-.4.69.02-.03-.25.36-.13.2.06-.08-.2.24-.25.29-.16.18-.33.35-.51.5-.01.01-.38.3-.14.12-.12.08-.24.16-.36.24-.25.15-.5.28-.77.4-.74.33-.91,1.41-.54,2.05.45.76,1.31.87,2.05.54,4.86-2.14,6.26-9.33,2.32-12.98-1.97-1.83-4.72-2.56-7.35-2.11s-4.66,2.36-5.62,4.79c-1.1,2.78-.6,5.98,1.29,8.28.52.63,1.59.53,2.12,0,.62-.62.52-1.49,0-2.12h0Z"/>
    </g>
    <g>
      <path class="cls-6" d="M385.91,310.48c.89-2.67,1.78-5.4,1.76-8.22s-1.14-5.78-3.51-7.31c-1.19-.77-2.61-1.13-3.77-1.93-2.79-1.92-3.36-6.12-1.8-9.13s4.77-4.89,8.07-5.65,6.74-.55,10.12-.34c3.56.22,7.68.78,9.49,3.85.98,1.65,1.02,3.68,1,5.6-.04,5.74-.3,11.47-.79,17.19-.23,2.69-.59,5.57-2.35,7.61-1.89,2.19-5.05,2.93-7.92,2.6s-5.55-1.58-8.16-2.82"/>
      <path d="M387.36,310.88c1.16-3.5,2.26-7.14,1.58-10.86-.6-3.25-2.54-5.77-5.53-7.14-1.35-.62-2.67-1.15-3.44-2.5-.67-1.16-.86-2.59-.66-3.91.48-3.06,3.18-5.22,5.93-6.24,3.53-1.31,7.39-1.08,11.08-.85,2.66.17,6.12.29,8.08,2.37,1.11,1.18,1.32,2.8,1.37,4.36.06,2.05-.02,4.11-.08,6.16-.12,4.1-.34,8.19-.7,12.27-.31,3.5-1.03,7.26-4.84,8.41s-7.85-.67-11.34-2.31c-1.74-.82-3.26,1.77-1.51,2.59,3.7,1.74,7.63,3.53,11.83,2.98,3.67-.48,6.57-2.62,7.86-6.13.63-1.71.82-3.56.98-5.36.21-2.35.37-4.71.5-7.06s.22-4.75.27-7.13c.04-2.09.17-4.22-.12-6.3-.52-3.78-3.12-6.18-6.71-7.13-1.61-.43-3.3-.59-4.96-.71-2.21-.15-4.43-.29-6.65-.17-3.83.21-7.65,1.24-10.58,3.82-2.63,2.31-3.93,5.72-3.31,9.18.31,1.72,1.19,3.38,2.53,4.52,1.63,1.39,3.94,1.69,5.4,3.28,3.29,3.57,1.44,9.04.12,13.01-.61,1.84,2.29,2.62,2.89.8h0Z"/>
    </g>
    <g>
      <path class="cls-6" d="M430.4,311.72c3.9-2.43,9.35.41,11.33,4.56s1.49,9,.96,13.57c-.65,5.56-1.29,11.13-1.94,16.69-.2,1.7-.45,3.52-1.58,4.81-1.77,2.01-4.88,1.92-7.54,1.67-20.02-1.91-40.03-3.82-60.05-5.73-3.15-.3-6.57-.72-8.84-2.94-2.73-2.68-2.8-6.97-2.7-10.79.18-6.42.35-12.83.53-19.25.07-2.57.31-5.49,2.34-7.06,1.82-1.42,4.39-1.18,6.68-.87,19.81,2.67,39.62,5.34,59.43,8.02"/>
      <path d="M431.16,313.02c2.28-1.33,5.02-.52,6.95,1.08,2.45,2.01,3.35,5.1,3.51,8.17.2,3.68-.41,7.38-.83,11.02-.46,3.93-.91,7.85-1.37,11.78-.17,1.5-.21,3.19-.89,4.56s-2.18,1.9-3.67,2c-3.51.23-7.18-.48-10.67-.82-7.94-.76-15.88-1.52-23.82-2.27s-15.88-1.52-23.82-2.27c-3.35-.32-7.03-.29-10.22-1.45-2.99-1.09-4.33-3.69-4.67-6.73-.39-3.44-.03-7,.06-10.45.11-3.95.22-7.9.33-11.84.07-2.51-.27-6.65,2.59-7.81,1.3-.53,2.84-.35,4.2-.2,2.11.24,4.21.56,6.32.85,17.83,2.4,35.66,4.81,53.49,7.21.81.11,1.6-.19,1.85-1.05.2-.7-.25-1.74-1.05-1.85-17.66-2.38-35.33-4.76-52.99-7.15-2.15-.29-4.29-.58-6.44-.87-1.76-.24-3.5-.43-5.26-.09-3.49.68-5.09,3.71-5.49,6.96-.5,4.06-.33,8.28-.44,12.37s-.4,8.15-.27,12.2c.11,3.23.75,6.67,3.14,9.03,2.52,2.48,6.15,3.01,9.52,3.34,8.72.87,17.46,1.67,26.19,2.5s17.7,1.69,26.55,2.53c2.23.21,4.47.43,6.7.64,1.71.16,3.41.33,5.13.11,3.6-.47,5.72-2.88,6.28-6.4.66-4.18,1-8.43,1.49-12.63s1.19-8.24,1.12-12.37c-.06-3.5-.83-7.11-3.12-9.85-1.88-2.24-4.73-3.84-7.68-3.94-1.48-.05-2.93.35-4.21,1.09-1.67.97-.16,3.57,1.51,2.59h0Z"/>
    </g>
    <g>
      <path class="cls-13" d="M396.93,387.22c-7.2-4.95-12.02-13.86-10.5-22.45s10.44-15.69,18.96-13.75c2.89.66,5.5,2.21,8.33,3.12s6.2,1.07,8.5-.8c2.61-2.13,2.86-5.96,2.9-9.34.08-6.27.15-12.55.23-18.82.06-4.57-.51-10.18-4.69-12.03-3.57-1.59-8.94.06-10.75-3.4-1.11-2.13.31-4.88,2.41-6.05s4.64-1.16,7.04-1.1c7.07.2,15.33,1.41,18.76,7.6,3.38,6.1.2,13.54-1.55,20.29-2.6,10.02-1.8,20.9,2.24,30.43,2.04,4.81,4.87,9.28,6.47,14.26s1.78,10.8-1.25,15.05"/>
      <path d="M397.69,385.92c-6.14-4.29-10.54-11.64-9.99-19.29.5-6.85,6.01-13.13,12.83-14.29,4.11-.7,7.63,1.25,11.33,2.7,3.38,1.33,7.64,2.03,10.83-.2s3.8-6.16,3.92-9.76c.16-4.82.13-9.65.19-14.47.08-6.2,1.3-16.43-6.14-19.1-1.52-.54-3.16-.64-4.75-.77-1.29-.11-2.91-.12-3.99-.94-1.32-1-.92-2.74.01-3.87,1.33-1.59,3.59-1.84,5.53-1.88,3.53-.07,7.17.19,10.61,1.04,3.14.78,6.36,2.21,8.25,4.97,2.38,3.48,2.01,7.79,1.11,11.7-.98,4.24-2.5,8.33-3.18,12.64-1.38,8.66-.51,17.69,2.73,25.86,3.02,7.63,9.01,15.18,7.85,23.84-.26,1.93-.95,3.73-2.05,5.33s1.5,3.1,2.59,1.51c5.27-7.68,1.49-17.14-2.23-24.56-2.12-4.23-4.09-8.44-5.22-13.06s-1.51-9.24-1.23-13.91,1.49-9.05,2.76-13.52c1.2-4.22,2.31-8.74,1.3-13.11-1.82-7.96-9.93-10.73-17.16-11.47-3.85-.39-8.68-.96-12.14,1.13-3.11,1.87-4.73,6.38-1.91,9.23,2.43,2.45,6.23,1.7,9.3,2.41,3.53.81,4.61,4.27,4.91,7.51.43,4.6.05,9.33,0,13.95-.03,2.64-.06,5.28-.1,7.92-.02,1.93-.04,3.89-.58,5.75-1.27,4.37-5.64,4.57-9.35,3.29-4.14-1.43-7.85-3.7-12.39-3.3-7.38.66-13.85,6.39-15.92,13.42-2.3,7.8.92,16.27,6.3,22.01,1.35,1.44,2.87,2.71,4.49,3.84s3.09-1.49,1.51-2.59h0Z"/>
    </g>
    <g>
      <g>
        <path class="cls-6" d="M374.99,356.04c-5.41-3.38-9.72-8.72-11.22-14.92s.08-13.22,4.58-17.75c4.5-4.53,11.94-6.08,17.62-3.17,4.77,2.45,7.71,7.43,9.61,12.46,2.1,5.56,3.09,12.25-.34,17.1-4.39,6.2-13.4,6.27-20.98,5.7,6.16,6.47,15.94,9.25,24.58,7s15.82-9.46,18.03-18.12c1.71-6.68.58-13.9-2.34-20.15-3.44-7.39-9.74-13.81-17.68-15.65s-17.31,1.91-20.36,9.47"/>
        <path d="M375.75,354.75c-5.95-3.78-10.66-10.12-11-17.35s3.2-13.91,9.93-16.3c3.13-1.11,6.63-1.24,9.73.02,3.31,1.35,5.76,4.17,7.5,7.2,3.27,5.67,6.19,14.33,2.24,20.35s-13.4,5.76-19.9,5.28c-1.35-.1-1.91,1.68-1.06,2.56,6.07,6.27,15.05,9.19,23.64,7.88s15.61-6.88,19.4-14.24c4.46-8.67,3.46-19.02-.81-27.56-3.71-7.41-10.46-14.03-18.82-15.65s-18.09,2.38-21.55,10.65c-.31.75.34,1.64,1.05,1.85.86.25,1.53-.3,1.85-1.05,2.64-6.33,10.09-9.38,16.59-8.74,7.41.73,13.6,6.31,17.23,12.49,4.27,7.27,5.92,16.54,2.77,24.55-2.66,6.74-8.61,12.18-15.57,14.17-8.33,2.38-17.65-.27-23.65-6.47l-1.06,2.56c7.05.52,15.85.68,21.08-4.96,5.95-6.42,3.6-16.24.17-23.3-1.77-3.65-4.29-7.07-7.78-9.23s-7.38-2.63-11.22-1.95c-8.26,1.47-13.74,8.6-14.64,16.69-1.06,9.47,4.61,18.2,12.38,23.13,1.63,1.04,3.14-1.56,1.51-2.59h0Z"/>
      </g>
      <g>
        <path class="cls-8" d="M369.37,325.53c-3.38,7.57-3.04,17.44,2.33,23.56s16.05,6.43,20.57-.43c3.75-5.68,2.23-13.87-1.76-19.35-3.63-4.98-9.66-8.45-15.41-7.05s-9.96,8.94-7.1,14.45"/>
        <path class="cls-8" d="M368.13,324.8c-3.15,7.2-3.51,16.2.83,23.02,3.73,5.85,11.18,8.89,17.89,6.65,7.72-2.58,10.24-11.01,8.4-18.37-1.94-7.77-8.74-15.36-17.19-15.59s-15.12,9.2-11.29,16.93c.82,1.67,3.32.2,2.49-1.46-2.62-5.31,2.05-12.15,7.69-12.56,6.96-.5,12.93,5.65,15.02,11.8,1.97,5.8,1.17,13.42-5.09,16.16-5.02,2.2-11.27.39-14.61-3.86-4.63-5.88-4.54-14.65-1.65-21.26.74-1.69-1.75-3.16-2.49-1.46h0Z"/>
      </g>
    </g>
    <g>
      <path class="cls-4" d="M377.83,350.84c5.61-1.97,9.3-8.33,8.23-14.18-.27-1.48-.78-3.1,0-4.39.84-1.4,2.93-1.61,4.34-.79s2.22,2.38,2.7,3.94c2.26,7.42-2.7,16.22-10.22,18.12"/>
      <path class="cls-8" d="M378.23,352.28c3.32-1.22,6.07-3.6,7.74-6.72,1.77-3.3,2.02-6.72,1.33-10.34-.13-.68-.39-1.73.14-2.31.41-.44,1.13-.48,1.67-.34,1.61.41,2.33,2.39,2.69,3.82.77,3.02.2,6.29-1.24,9.02-1.7,3.22-4.54,5.74-8.09,6.69-1.86.5-1.07,3.39.8,2.89,7.36-1.96,12.6-9.71,11.79-17.28-.4-3.72-2.51-8.68-7.05-8.17-2.15.25-3.69,1.83-3.85,3.99s.72,4.06.55,6.17c-.35,4.21-3.3,8.23-7.27,9.68-1.8.66-1.02,3.56.8,2.89h0Z"/>
    </g>
  </g>
  <text class="cls-3" transform="translate(232.76 331.18) rotate(-57.08) scale(1.12 1)"><tspan x="0" y="0">W</tspan></text>
  <text class="cls-3" transform="translate(329.72 196.74) rotate(-36.52) scale(1.12 1)"><tspan x="0" y="0">I</tspan></text>
  <text class="cls-3" transform="translate(380.59 154.1) rotate(-21.47) scale(1.12 1)"><tspan x="0" y="0">Z</tspan></text>
  <text class="cls-3" transform="translate(491.16 110.01) rotate(-3.46) scale(1.12 1)"><tspan x="0" y="0">A</tspan></text>
  <text class="cls-3" transform="translate(608.63 100.33) rotate(15.39) scale(1.12 1)"><tspan x="0" y="0">R</tspan></text>
  <text class="cls-3" transform="translate(738.68 137.29) rotate(34.69) scale(1.12 1)"><tspan x="0" y="0">D</tspan></text>
  <text class="cls-3" transform="translate(825.83 201.3) rotate(47.97) scale(1.12 1)"><tspan x="0" y="0">’</tspan></text>
  <text class="cls-3" transform="translate(859.26 232.01) rotate(61.93) scale(1.12 1)"><tspan x="0" y="0">S</tspan></text>
  <text class="cls-2" transform="translate(207.81 412.63) rotate(76.19) scale(.92 1)"><tspan x="0" y="0">A</tspan></text>
  <text class="cls-2" transform="translate(226.18 484.22) rotate(67.19) scale(.92 1)"><tspan x="0" y="0">n</tspan></text>
  <text class="cls-2" transform="translate(250.7 540.48) rotate(60.28) scale(.92 1)"><tspan x="0" y="0">i</tspan></text>
  <text class="cls-2" transform="translate(270.09 578.24) rotate(50.74) scale(.92 1)"><tspan x="0" y="0">m</tspan></text>
  <text class="cls-2" transform="translate(332.64 651.73) rotate(38.72) scale(.92 1)"><tspan x="0" y="0">a</tspan></text>
  <text class="cls-2" transform="translate(385.77 692.64) rotate(30.95) scale(.92 1)"><tspan x="0" y="0">l</tspan></text>
  <text class="cls-2" transform="translate(414.58 709.79) rotate(25.74) scale(.92 1)"><tspan x="0" y="0"> </tspan></text>
  <text class="cls-2" transform="translate(444.99 725.5) rotate(17.53) scale(.92 1)"><tspan x="0" y="0">P</tspan></text>
  <text class="cls-2" transform="translate(510.85 745.56) rotate(6.64) scale(.92 1)"><tspan x="0" y="0">h</tspan></text>
  <text class="cls-2" transform="translate(573.75 752.25) rotate(-3.26) scale(.92 1)"><tspan x="0" y="0">o</tspan></text>
  <text class="cls-2" transform="translate(631.83 748.82) rotate(-13.35) scale(.92 1)"><tspan x="0" y="0">t</tspan></text>
  <text class="cls-2" transform="translate(694.41 733.26) rotate(-23.33) scale(.92 1)"><tspan x="0" y="0">o</tspan></text>
  <text class="cls-2" transform="translate(747.43 710.14) rotate(-32.72) scale(.92 1)"><tspan x="0" y="0">g</tspan></text>
  <text class="cls-2" transform="translate(798.96 676.64) rotate(-42.07) scale(.92 1)"><tspan x="0" y="0">r</tspan></text>
  <text class="cls-2" transform="translate(845.52 634.37) rotate(-51.47) scale(.92 1)"><tspan x="0" y="0">a</tspan></text>
  <text class="cls-2" transform="translate(887.25 581.08) rotate(-60.49) scale(.92 1)"><tspan x="0" y="0">p</tspan></text>
  <text class="cls-2" transform="translate(917.69 526.71) rotate(-68.89) scale(.92 1)"><tspan x="0" y="0">h</tspan></text>
  <text class="cls-2" transform="translate(940.18 468.23) rotate(-77.52) scale(.92 1)"><tspan x="0" y="0">y</tspan></text>
  <text/>
</svg>